<svg width="19" height="22" viewBox="0 0 19 22" fill="none" xmlns="http://www.w3.org/2000/svg">
<g clip-path="url(#clip0_1_157)">
<path d="M13.222 11.95C13.594 11.182 13.942 10.606 14.266 10.222H3.772V9.466H14.266C13.942 9.082 13.594 8.506 13.222 7.738H13.852C14.608 8.614 15.4 9.262 16.228 9.682V10.006C15.4 10.426 14.608 11.074 13.852 11.95H13.222Z" fill="white"/>
<path d="M13.222 11.95L12.322 11.5141L11.6265 12.95H13.222V11.95ZM14.266 10.222L15.0303 10.8669L16.4182 9.222H14.266V10.222ZM3.772 10.222H2.772V11.222H3.772V10.222ZM3.772 9.466V8.466H2.772V9.466H3.772ZM14.266 9.466V10.466H16.4182L15.0303 8.82113L14.266 9.466ZM13.222 7.738V6.738H11.6265L12.322 8.17393L13.222 7.738ZM13.852 7.738L14.6091 7.08465L14.3099 6.738H13.852V7.738ZM16.228 9.682H17.228V9.06795L16.6804 8.79017L16.228 9.682ZM16.228 10.006L16.6804 10.8978L17.228 10.62V10.006H16.228ZM13.852 11.95V12.95H14.3099L14.6091 12.6033L13.852 11.95ZM14.122 12.3859C14.4791 11.6486 14.7846 11.1581 15.0303 10.8669L13.5017 9.57713C13.0994 10.0539 12.7089 10.7154 12.322 11.5141L14.122 12.3859ZM14.266 9.222H3.772V11.222H14.266V9.222ZM4.772 10.222V9.466H2.772V10.222H4.772ZM3.772 10.466H14.266V8.466H3.772V10.466ZM15.0303 8.82113C14.7846 8.52989 14.4791 8.0394 14.122 7.30207L12.322 8.17393C12.7089 8.9726 13.0994 9.63411 13.5017 10.1109L15.0303 8.82113ZM13.222 8.738H13.852V6.738H13.222V8.738ZM13.0949 8.39135C13.9158 9.34246 14.8067 10.0824 15.7756 10.5738L16.6804 8.79017C15.9933 8.44163 15.3002 7.88554 14.6091 7.08465L13.0949 8.39135ZM15.228 9.682V10.006H17.228V9.682H15.228ZM15.7756 9.11417C14.8067 9.60563 13.9158 10.3455 13.0949 11.2966L14.6091 12.6033C15.3002 11.8025 15.9933 11.2464 16.6804 10.8978L15.7756 9.11417ZM13.852 10.95H13.222V12.95H13.852V10.95Z" fill="black"/>
</g>
<defs>
<clipPath id="clip0_1_157">
<rect width="18.5938" height="21" fill="white" transform="translate(0 0.203125)"/>
</clipPath>
</defs>
</svg>
